# xmcd
#
# Track frame offsets:
#	150
#	30116
#	53938
#	81737
#	104668
#	134816
#	158100
#	193578
#	216890
#	240153
#
# Disc length: 3559 seconds
#
# Revision: 3
# Processed by: cddbd v1.5.2PL0 Copyright (c) Steve Scherf et al.
# Submitted via: audiograbber 1.82.02
#
DISCID=8a0de50a
DTITLE=Windimoto - The Travels Of Windimoto
DYEAR=2007
DGENRE=House
TTITLE0=Don't Leave Me Alone Tonight (Talia)[feat. Victor St. Clair)
TTITLE1=A Place For Us (feat. Carlita Brand and Victor St. Clair)
TTITLE2=Midnight In Eden
TTITLE3=Underground Peace Lounge
TTITLE4=A Place For Us (The Seveny2 Rent Party Redux)
TTITLE5=Don't Leave Me Alone (Nicolay's Hardhouse Remix)
TTITLE6=Don't Leave Me Alone (The Seveny2 Step Remix)
TTITLE7=Afra Natura
TTITLE8=Don't Leave Me Alone (Trackademicks Remix)
TTITLE9=A Place For Us (DJ Tony Tone Remix)
EXTD=
EXTT0=
EXTT1=
EXTT2=
EXTT3=
EXTT4=
EXTT5=
EXTT6=
EXTT7=
EXTT8=
EXTT9=
PLAYORDER=
